<svg width="66" height="66" viewBox="0 0 66 66" fill="none" xmlns="http://www.w3.org/2000/svg">
<circle cx="32.64" cy="32.64" r="32.64" fill="#F3F3F3"/>
<g clip-path="url(#clip0_22_4)">
<path d="M22.7851 41.3158L20.7921 47.5054C20.7648 47.6181 20.6991 47.7177 20.6064 47.7873C20.5138 47.857 20.3998 47.8923 20.284 47.8872H15.3238C15.0413 47.8872 14.9421 47.7318 15.0263 47.4211L23.517 23.0049C23.6013 22.7504 23.689 22.4608 23.7803 22.1361C23.8908 21.5705 23.9472 20.9957 23.9488 20.4195C23.939 20.3504 23.9571 20.2802 23.9991 20.2244C24.041 20.1686 24.1034 20.1318 24.1726 20.122C24.197 20.1185 24.2218 20.1185 24.2463 20.122H30.9862C31.059 20.1067 31.1349 20.1201 31.1981 20.1593C31.2614 20.1985 31.3071 20.2606 31.3258 20.3326L40.9485 47.4501C41.0328 47.7327 40.945 47.874 40.6853 47.874H35.1617C35.067 47.8843 34.9717 47.8599 34.8937 47.8051C34.8157 47.7504 34.7603 47.6691 34.7379 47.5765L32.5764 41.3026L22.7851 41.3158ZM24.3068 35.9739H31.0046C30.8291 35.4087 30.6316 34.7733 30.4122 34.0678C30.1928 33.3622 29.9524 32.6066 29.6908 31.8009L28.9273 29.3841C28.6728 28.5784 28.4394 27.8009 28.227 27.0514C28.0147 26.302 27.8242 25.6166 27.6557 24.9952H27.6136C27.3749 26.14 27.0779 27.2718 26.7237 28.3862C26.327 29.6588 25.9242 30.9585 25.5153 32.2854C25.1063 33.6123 24.7035 34.8418 24.3068 35.9739Z" fill="#444444"/>
<path d="M46.6485 24.6162C46.2164 24.6334 45.7856 24.5593 45.3841 24.3987C44.9826 24.2381 44.6195 23.9946 44.3185 23.6842C44.0183 23.3598 43.7851 22.9793 43.6324 22.5646C43.4796 22.1498 43.4104 21.7089 43.4286 21.2673C43.4129 20.83 43.4897 20.3943 43.6539 19.9887C43.8182 19.5832 44.0662 19.2168 44.3817 18.9136C44.6944 18.6138 45.0634 18.3789 45.4673 18.2225C45.8713 18.0662 46.3023 17.9915 46.7354 18.0027C47.7534 18.0027 48.552 18.3063 49.1312 18.9136C49.4237 19.2295 49.651 19.6 49.8001 20.0039C49.9492 20.4078 50.0171 20.8371 50 21.2673C50.018 21.7107 49.9466 22.1531 49.7901 22.5683C49.6336 22.9835 49.3952 23.363 49.0891 23.6842C48.7691 23.9995 48.3873 24.2451 47.9677 24.4056C47.5481 24.566 47.0998 24.6377 46.6511 24.6162H46.6485ZM43.7261 47.4634V27.191C43.7161 27.1424 43.7176 27.0922 43.7304 27.0442C43.7433 26.9963 43.7671 26.952 43.8001 26.9149C43.8331 26.8778 43.8743 26.849 43.9204 26.8306C43.9666 26.8123 44.0163 26.805 44.0658 26.8093H49.2786C49.3279 26.8055 49.3775 26.8132 49.4233 26.8317C49.4692 26.8503 49.5101 26.8791 49.543 26.9161C49.5758 26.953 49.5997 26.9971 49.6128 27.0448C49.6259 27.0924 49.6277 27.1425 49.6183 27.191V47.4634C49.6183 47.7459 49.5051 47.8872 49.2786 47.8872H44.1053C44.0502 47.8919 43.9948 47.8837 43.9435 47.8634C43.8921 47.843 43.8461 47.8111 43.8092 47.7701C43.7722 47.729 43.7452 47.68 43.7304 47.6268C43.7155 47.5735 43.7132 47.5176 43.7235 47.4634" fill="#444444"/>
</g>
<defs>
<clipPath id="clip0_22_4">
<rect width="35" height="29.8872" fill="white" transform="translate(15 18)"/>
</clipPath>
</defs>
</svg>
