<svg width="66" height="66" viewBox="0 0 66 66" fill="none" xmlns="http://www.w3.org/2000/svg">
<circle cx="32.64" cy="32.64" r="32.64" fill="#F3F3F3"/>
<g clip-path="url(#clip0_22_3)">
<path d="M16 46.0679V18.4352C15.9921 18.3965 15.9926 18.3564 16.0015 18.3181C16.0104 18.2797 16.0274 18.2443 16.0511 18.2146C16.0748 18.185 16.1046 18.162 16.1379 18.1476C16.1712 18.1331 16.2071 18.1277 16.2427 18.1316C16.6577 18.1316 17.0387 18.1316 17.6115 18.1101L19.4682 18.0672L21.5773 18.0242C22.3199 18.0098 23.0561 18.0027 23.7859 18.0027C25.7647 18.0027 27.432 18.2767 28.7879 18.8247C30.0098 19.2824 31.1241 20.0358 32.0498 21.03C32.835 21.892 33.442 22.9321 33.8288 24.0788C34.1951 25.1982 34.38 26.3804 34.3749 27.5709C34.3749 29.8774 33.8895 31.7801 32.9187 33.279C31.9499 34.7835 30.5879 35.9235 29.0161 36.5454C27.3754 37.2223 25.5503 37.4533 23.5456 37.4533C22.9728 37.4533 22.5683 37.4461 22.3321 37.4318C22.0958 37.4175 21.7439 37.4103 21.2763 37.4103V46.0383C21.2821 46.0832 21.2799 46.1288 21.2698 46.1727C21.2596 46.2165 21.2417 46.2577 21.2171 46.2939C21.1926 46.3301 21.1618 46.3606 21.1265 46.3835C21.0913 46.4065 21.0523 46.4216 21.0118 46.4278C20.9828 46.4321 20.9534 46.4321 20.9244 46.4278H16.2742C16.2339 46.4313 16.1935 46.4244 16.156 46.4075C16.1186 46.3906 16.0852 46.3643 16.0586 46.3307C16.032 46.297 16.0128 46.257 16.0026 46.2137C15.9925 46.1704 15.9915 46.1251 16 46.0813V46.0679ZM21.2787 23.3321V32.3469C21.6169 32.3755 21.9292 32.3899 22.2156 32.3899H23.5043C24.453 32.3862 25.3954 32.2194 26.2978 31.8956C27.0718 31.6414 27.7635 31.1463 28.2904 30.4692C28.7984 29.8067 29.0525 28.8844 29.0525 27.7025C29.073 26.8653 28.8758 26.0393 28.4845 25.3225C28.0745 24.6292 27.4812 24.0927 26.7856 23.786C25.8774 23.3965 24.9074 23.2138 23.9339 23.2488C23.3093 23.2488 22.756 23.256 22.2738 23.2703C21.7916 23.2846 21.46 23.3061 21.2787 23.3348" fill="#444444"/>
<path d="M49.4759 30.6949C48.7415 30.2773 47.9593 29.9719 47.1508 29.787C46.2599 29.5605 45.349 29.4443 44.4349 29.4405C43.9435 29.427 43.4529 29.493 42.9787 29.6366C42.6754 29.7104 42.4054 29.9007 42.2167 30.1738C42.0896 30.3935 42.0222 30.649 42.0225 30.9098C42.0318 31.1642 42.1172 31.4079 42.2652 31.6028C42.4935 31.8984 42.7723 32.1413 43.0855 32.3174C43.6424 32.6492 44.2161 32.9452 44.8038 33.2038C46.1157 33.6899 47.3692 34.3511 48.5366 35.1728C49.3317 35.728 49.9897 36.4932 50.4515 37.3996C50.8401 38.2575 51.035 39.2069 51.0194 40.1664C51.043 41.4334 50.7161 42.6781 50.0826 43.7336C49.4039 44.8056 48.4612 45.6391 47.3668 46.1351C46.1808 46.7117 44.7157 47 42.9714 47C41.8633 47.0122 40.757 46.8961 39.6707 46.6535C38.8148 46.4799 37.9816 46.1893 37.1903 45.7886C37.1047 45.74 37.0334 45.6655 36.9849 45.5736C36.9363 45.4818 36.9124 45.3765 36.916 45.2701V40.5989C36.9109 40.553 36.9172 40.5064 36.9344 40.4643C36.9515 40.4221 36.9787 40.386 37.0131 40.3598C37.0468 40.3385 37.0855 40.3291 37.1242 40.3329C37.1628 40.3368 37.1994 40.3536 37.2291 40.3813C38.1642 40.9915 39.1796 41.4365 40.2386 41.7002C41.1716 41.9589 42.1286 42.0968 43.0904 42.1112C44.0013 42.1112 44.672 41.9814 45.1024 41.7217C45.2969 41.6234 45.4614 41.4647 45.576 41.2649C45.6906 41.0651 45.7504 40.8328 45.748 40.5962C45.748 40.2219 45.553 39.8637 45.163 39.5217C44.7731 39.1797 43.9787 38.7615 42.7797 38.2673C41.5527 37.795 40.3893 37.1408 39.3212 36.3225C38.5572 35.7349 37.928 34.9575 37.484 34.0526C37.1002 33.2006 36.9063 32.2593 36.9185 31.3074C36.9159 30.1626 37.1998 29.0395 37.7388 28.0625C38.3525 26.9868 39.2341 26.1304 40.2775 25.5965C41.423 24.9626 42.8558 24.6456 44.5757 24.6456C45.5829 24.6363 46.5893 24.7153 47.5852 24.882C48.3062 24.9838 49.011 25.1953 49.6797 25.5106C49.7341 25.5261 49.7845 25.5555 49.8267 25.5966C49.8688 25.6377 49.9016 25.6892 49.9224 25.747C49.942 25.853 49.9485 25.9614 49.9418 26.0693V30.437C49.9462 30.4893 49.9376 30.5419 49.9171 30.5892C49.8966 30.6365 49.8649 30.6767 49.8253 30.7057C49.7729 30.7345 49.7152 30.7495 49.6567 30.7495C49.5981 30.7495 49.5404 30.7345 49.488 30.7057" fill="#444444"/>
</g>
<defs>
<clipPath id="clip0_22_3">
<rect width="35" height="29" fill="white" transform="translate(16 18)"/>
</clipPath>
</defs>
</svg>
